STARTFONT 2.1
COMMENT Exported by Fony v1.4.6
FONT ISO10646_CN
SIZE 12 96 96
FONTBOUNDINGBOX 12 11 0 -2
STARTPROPERTIES 6
COPYRIGHT "A. Hardtung, public domain"
RESOLUTION_X 96
RESOLUTION_Y 96
FONT_ASCENT 10
FONT_DESCENT 2
DEFAULT_CHAR 0
ENDPROPERTIES
CHARS 224
STARTCHAR 032
ENCODING 32
SWIDTH 432 0
DWIDTH 6 0
BBX 0 0 0 0
BITMAP
ENDCHAR
STARTCHAR 033
ENCODING 33
SWIDTH 432 0
DWIDTH 6 0
BBX 1 7 2 0
BITMAP
80
80
80
80
80
00
80
ENDCHAR
STARTCHAR 034
ENCODING 34
SWIDTH 432 0
DWIDTH 6 0
BBX 3 2 1 5
BITMAP
A0
A0
ENDCHAR
STARTCHAR 035
ENCODING 35
SWIDTH 432 0
DWIDTH 6 0
BBX 5 7 0 0
BITMAP
50
50
F8
50
F8
50
50
ENDCHAR
STARTCHAR 036
ENCODING 36
SWIDTH 432 0
DWIDTH 6 0
BBX 5 7 0 0
BITMAP
20
78
A0
70
28
F0
20
ENDCHAR
STARTCHAR 037
ENCODING 37
SWIDTH 432 0
DWIDTH 6 0
BBX 5 7 0 0
BITMAP
C0
C8
10
20
40
98
18
ENDCHAR
STARTCHAR 038
ENCODING 38
SWIDTH 432 0
DWIDTH 6 0
BBX 5 7 0 0
BITMAP
60
90
A0
40
A8
90
68
ENDCHAR
STARTCHAR 039
ENCODING 39
SWIDTH 432 0
DWIDTH 6 0
BBX 2 3 1 4
BITMAP
C0
40
80
ENDCHAR
STARTCHAR 040
ENCODING 40
SWIDTH 432 0
DWIDTH 6 0
BBX 3 7 1 0
BITMAP
20
40
80
80
80
40
20
ENDCHAR
STARTCHAR 041
ENCODING 41
SWIDTH 432 0
DWIDTH 6 0
BBX 3 7 1 0
BITMAP
80
40
20
20
20
40
80
ENDCHAR
STARTCHAR 042
ENCODING 42
SWIDTH 432 0
DWIDTH 6 0
BBX 5 5 0 1
BITMAP
20
A8
70
A8
20
ENDCHAR
STARTCHAR 043
ENCODING 43
SWIDTH 432 0
DWIDTH 6 0
BBX 5 5 0 1
BITMAP
20
20
F8
20
20
ENDCHAR
STARTCHAR 044
ENCODING 44
SWIDTH 432 0
DWIDTH 6 0
BBX 2 3 2 -1
BITMAP
C0
40
80
ENDCHAR
STARTCHAR 045
ENCODING 45
SWIDTH 432 0
DWIDTH 6 0
BBX 5 1 0 3
BITMAP
F8
ENDCHAR
STARTCHAR 046
ENCODING 46
SWIDTH 432 0
DWIDTH 6 0
BBX 2 2 2 0
BITMAP
C0
C0
ENDCHAR
STARTCHAR 047
ENCODING 47
SWIDTH 432 0
DWIDTH 6 0
BBX 5 5 0 1
BITMAP
08
10
20
40
80
ENDCHAR
STARTCHAR 048
ENCODING 48
SWIDTH 432 0
DWIDTH 6 0
BBX 5 7 0 0
BITMAP
70
88
98
A8
C8
88
70
ENDCHAR
STARTCHAR 049
ENCODING 49
SWIDTH 432 0
DWIDTH 6 0
BBX 3 7 1 0
BITMAP
40
C0
40
40
40
40
E0
ENDCHAR
STARTCHAR 050
ENCODING 50
SWIDTH 432 0
DWIDTH 6 0
BBX 5 7 0 0
BITMAP
70
88
08
70
80
80
F8
ENDCHAR
STARTCHAR 051
ENCODING 51
SWIDTH 432 0
DWIDTH 6 0
BBX 5 7 0 0
BITMAP
F8
10
20
10
08
08
F0
ENDCHAR
STARTCHAR 052
ENCODING 52
SWIDTH 432 0
DWIDTH 6 0
BBX 5 7 0 0
BITMAP
10
30
50
90
F8
10
10
ENDCHAR
STARTCHAR 053
ENCODING 53
SWIDTH 432 0
DWIDTH 6 0
BBX 5 7 0 0
BITMAP
F8
80
F0
08
08
88
70
ENDCHAR
STARTCHAR 054
ENCODING 54
SWIDTH 432 0
DWIDTH 6 0
BBX 5 7 0 0
BITMAP
70
80
80
F0
88
88
70
ENDCHAR
STARTCHAR 055
ENCODING 55
SWIDTH 432 0
DWIDTH 6 0
BBX 5 7 0 0
BITMAP
F8
08
10
20
20
20
20
ENDCHAR
STARTCHAR 056
ENCODING 56
SWIDTH 432 0
DWIDTH 6 0
BBX 5 7 0 0
BITMAP
70
88
88
70
88
88
70
ENDCHAR
STARTCHAR 057
ENCODING 57
SWIDTH 432 0
DWIDTH 6 0
BBX 5 7 0 0
BITMAP
70
88
88
78
08
08
70
ENDCHAR
STARTCHAR 058
ENCODING 58
SWIDTH 432 0
DWIDTH 6 0
BBX 2 5 2 0
BITMAP
C0
C0
00
C0
C0
ENDCHAR
STARTCHAR 059
ENCODING 59
SWIDTH 432 0
DWIDTH 6 0
BBX 2 6 2 -1
BITMAP
C0
C0
00
C0
40
80
ENDCHAR
STARTCHAR 060
ENCODING 60
SWIDTH 432 0
DWIDTH 6 0
BBX 4 7 0 0
BITMAP
10
20
40
80
40
20
10
ENDCHAR
STARTCHAR 061
ENCODING 61
SWIDTH 432 0
DWIDTH 6 0
BBX 5 3 0 2
BITMAP
F8
00
F8
ENDCHAR
STARTCHAR 062
ENCODING 62
SWIDTH 432 0
DWIDTH 6 0
BBX 4 7 0 0
BITMAP
80
40
20
10
20
40
80
ENDCHAR
STARTCHAR 063
ENCODING 63
SWIDTH 432 0
DWIDTH 6 0
BBX 5 7 0 0
BITMAP
70
88
08
10
20
00
20
ENDCHAR
STARTCHAR 064
ENCODING 64
SWIDTH 432 0
DWIDTH 6 0
BBX 5 7 0 0
BITMAP
70
88
08
68
A8
A8
70
ENDCHAR
STARTCHAR 065
ENCODING 65
SWIDTH 432 0
DWIDTH 6 0
BBX 5 7 0 0
BITMAP
70
88
88
F8
88
88
88
ENDCHAR
STARTCHAR 066
ENCODING 66
SWIDTH 432 0
DWIDTH 6 0
BBX 5 7 0 0
BITMAP
F0
88
88
F0
88
88
F0
ENDCHAR
STARTCHAR 067
ENCODING 67
SWIDTH 432 0
DWIDTH 6 0
BBX 5 7 0 0
BITMAP
70
88
80
80
80
88
70
ENDCHAR
STARTCHAR 068
ENCODING 68
SWIDTH 432 0
DWIDTH 6 0
BBX 5 7 0 0
BITMAP
F0
88
88
88
88
88
F0
ENDCHAR
STARTCHAR 069
ENCODING 69
SWIDTH 432 0
DWIDTH 6 0
BBX 5 7 0 0
BITMAP
F8
80
80
F0
80
80
F8
ENDCHAR
STARTCHAR 070
ENCODING 70
SWIDTH 432 0
DWIDTH 6 0
BBX 5 7 0 0
BITMAP
F8
80
80
F0
80
80
80
ENDCHAR
STARTCHAR 071
ENCODING 71
SWIDTH 432 0
DWIDTH 6 0
BBX 5 7 0 0
BITMAP
70
88
80
B8
88
88
70
ENDCHAR
STARTCHAR 072
ENCODING 72
SWIDTH 432 0
DWIDTH 6 0
BBX 5 7 0 0
BITMAP
88
88
88
F8
88
88
88
ENDCHAR
STARTCHAR 073
ENCODING 73
SWIDTH 432 0
DWIDTH 6 0
BBX 1 7 2 0
BITMAP
80
80
80
80
80
80
80
ENDCHAR
STARTCHAR 074
ENCODING 74
SWIDTH 432 0
DWIDTH 6 0
BBX 5 7 0 0
BITMAP
38
10
10
10
10
90
60
ENDCHAR
STARTCHAR 075
ENCODING 75
SWIDTH 432 0
DWIDTH 6 0
BBX 5 7 0 0
BITMAP
88
90
A0
C0
A0
90
88
ENDCHAR
STARTCHAR 076
ENCODING 76
SWIDTH 432 0
DWIDTH 6 0
BBX 5 7 0 0
BITMAP
80
80
80
80
80
80
F8
ENDCHAR
STARTCHAR 077
ENCODING 77
SWIDTH 432 0
DWIDTH 6 0
BBX 5 7 0 0
BITMAP
88
D8
A8
88
88
88
88
ENDCHAR
STARTCHAR 078
ENCODING 78
SWIDTH 432 0
DWIDTH 6 0
BBX 5 7 0 0
BITMAP
88
88
C8
A8
98
88
88
ENDCHAR
STARTCHAR 079
ENCODING 79
SWIDTH 432 0
DWIDTH 6 0
BBX 5 7 0 0
BITMAP
70
88
88
88
88
88
70
ENDCHAR
STARTCHAR 080
ENCODING 80
SWIDTH 432 0
DWIDTH 6 0
BBX 5 7 0 0
BITMAP
F0
88
88
F0
80
80
80
ENDCHAR
STARTCHAR 081
ENCODING 81
SWIDTH 432 0
DWIDTH 6 0
BBX 5 7 0 0
BITMAP
70
88
88
88
A8
90
68
ENDCHAR
STARTCHAR 082
ENCODING 82
SWIDTH 432 0
DWIDTH 6 0
BBX 5 7 0 0
BITMAP
F0
88
88
F0
A0
90
88
ENDCHAR
STARTCHAR 083
ENCODING 83
SWIDTH 432 0
DWIDTH 6 0
BBX 5 7 0 0
BITMAP
78
80
80
70
08
08
F0
ENDCHAR
STARTCHAR 084
ENCODING 84
SWIDTH 432 0
DWIDTH 6 0
BBX 5 7 0 0
BITMAP
F8
20
20
20
20
20
20
ENDCHAR
STARTCHAR 085
ENCODING 85
SWIDTH 432 0
DWIDTH 6 0
BBX 5 7 0 0
BITMAP
88
88
88
88
88
88
70
ENDCHAR
STARTCHAR 086
ENCODING 86
SWIDTH 432 0
DWIDTH 6 0
BBX 5 7 0 0
BITMAP
88
88
88
88
88
50
20
ENDCHAR
STARTCHAR 087
ENCODING 87
SWIDTH 432 0
DWIDTH 6 0
BBX 5 7 0 0
BITMAP
88
88
88
88
88
A8
50
ENDCHAR
STARTCHAR 088
ENCODING 88
SWIDTH 432 0
DWIDTH 6 0
BBX 5 7 0 0
BITMAP
88
88
50
20
50
88
88
ENDCHAR
STARTCHAR 089
ENCODING 89
SWIDTH 432 0
DWIDTH 6 0
BBX 5 7 0 0
BITMAP
88
88
88
50
20
20
20
ENDCHAR
STARTCHAR 090
ENCODING 90
SWIDTH 432 0
DWIDTH 6 0
BBX 5 7 0 0
BITMAP
F8
08
10
20
40
80
F8
ENDCHAR
STARTCHAR 091
ENCODING 91
SWIDTH 432 0
DWIDTH 6 0
BBX 3 7 0 0
BITMAP
E0
80
80
80
80
80
E0
ENDCHAR
STARTCHAR 092
ENCODING 92
SWIDTH 432 0
DWIDTH 6 0
BBX 5 5 0 1
BITMAP
80
40
20
10
08
ENDCHAR
STARTCHAR 093
ENCODING 93
SWIDTH 432 0
DWIDTH 6 0
BBX 3 7 0 0
BITMAP
E0
20
20
20
20
20
E0
ENDCHAR
STARTCHAR 094
ENCODING 94
SWIDTH 432 0
DWIDTH 6 0
BBX 5 3 0 4
BITMAP
20
50
88
ENDCHAR
STARTCHAR 095
ENCODING 95
SWIDTH 432 0
DWIDTH 6 0
BBX 5 1 0 0
BITMAP
F8
ENDCHAR
STARTCHAR 096
ENCODING 96
SWIDTH 432 0
DWIDTH 6 0
BBX 2 2 2 5
BITMAP
80
40
ENDCHAR
STARTCHAR 097
ENCODING 97
SWIDTH 432 0
DWIDTH 6 0
BBX 5 5 0 0
BITMAP
70
08
78
88
78
ENDCHAR
STARTCHAR 098
ENCODING 98
SWIDTH 432 0
DWIDTH 6 0
BBX 5 7 0 0
BITMAP
80
80
B0
C8
88
88
F0
ENDCHAR
STARTCHAR 099
ENCODING 99
SWIDTH 432 0
DWIDTH 6 0
BBX 5 5 0 0
BITMAP
70
80
80
88
70
ENDCHAR
STARTCHAR 100
ENCODING 100
SWIDTH 432 0
DWIDTH 6 0
BBX 5 7 0 0
BITMAP
08
08
68
98
88
88
78
ENDCHAR
STARTCHAR 101
ENCODING 101
SWIDTH 432 0
DWIDTH 6 0
BBX 5 5 0 0
BITMAP
70
88
F8
80
70
ENDCHAR
STARTCHAR 102
ENCODING 102
SWIDTH 432 0
DWIDTH 6 0
BBX 5 7 0 0
BITMAP
30
48
E0
40
40
40
40
ENDCHAR
STARTCHAR 103
ENCODING 103
SWIDTH 432 0
DWIDTH 6 0
BBX 5 6 0 -1
BITMAP
70
88
88
78
08
70
ENDCHAR
STARTCHAR 104
ENCODING 104
SWIDTH 432 0
DWIDTH 6 0
BBX 5 7 0 0
BITMAP
80
80
B0
C8
88
88
88
ENDCHAR
STARTCHAR 105
ENCODING 105
SWIDTH 432 0
DWIDTH 6 0
BBX 1 7 2 0
BITMAP
80
00
80
80
80
80
80
ENDCHAR
STARTCHAR 106
ENCODING 106
SWIDTH 432 0
DWIDTH 6 0
BBX 3 8 1 -1
BITMAP
20
00
20
20
20
20
A0
40
ENDCHAR
STARTCHAR 107
ENCODING 107
SWIDTH 432 0
DWIDTH 6 0
BBX 4 7 1 0
BITMAP
80
80
90
A0
C0
A0
90
ENDCHAR
STARTCHAR 108
ENCODING 108
SWIDTH 432 0
DWIDTH 6 0
BBX 3 7 1 0
BITMAP
C0
40
40
40
40
40
E0
ENDCHAR
STARTCHAR 109
ENCODING 109
SWIDTH 432 0
DWIDTH 6 0
BBX 5 5 0 0
BITMAP
D0
A8
A8
A8
A8
ENDCHAR
STARTCHAR 110
ENCODING 110
SWIDTH 432 0
DWIDTH 6 0
BBX 5 5 0 0
BITMAP
B0
C8
88
88
88
ENDCHAR
STARTCHAR 111
ENCODING 111
SWIDTH 432 0
DWIDTH 6 0
BBX 5 5 0 0
BITMAP
70
88
88
88
70
ENDCHAR
STARTCHAR 112
ENCODING 112
SWIDTH 432 0
DWIDTH 6 0
BBX 5 6 0 -1
BITMAP
F0
88
88
F0
80
80
ENDCHAR
STARTCHAR 113
ENCODING 113
SWIDTH 432 0
DWIDTH 6 0
BBX 5 6 0 -1
BITMAP
78
88
88
78
08
08
ENDCHAR
STARTCHAR 114
ENCODING 114
SWIDTH 432 0
DWIDTH 6 0
BBX 5 5 0 0
BITMAP
B0
C8
80
80
80
ENDCHAR
STARTCHAR 115
ENCODING 115
SWIDTH 432 0
DWIDTH 6 0
BBX 5 5 0 0
BITMAP
70
80
70
08
F0
ENDCHAR
STARTCHAR 116
ENCODING 116
SWIDTH 432 0
DWIDTH 6 0
BBX 4 7 0 0
BITMAP
40
40
E0
40
40
40
30
ENDCHAR
STARTCHAR 117
ENCODING 117
SWIDTH 432 0
DWIDTH 6 0
BBX 5 5 0 0
BITMAP
88
88
88
98
68
ENDCHAR
STARTCHAR 118
ENCODING 118
SWIDTH 432 0
DWIDTH 6 0
BBX 5 5 0 0
BITMAP
88
88
88
50
20
ENDCHAR
STARTCHAR 119
ENCODING 119
SWIDTH 432 0
DWIDTH 6 0
BBX 5 5 0 0
BITMAP
88
88
A8
A8
50
ENDCHAR
STARTCHAR 120
ENCODING 120
SWIDTH 432 0
DWIDTH 6 0
BBX 5 5 0 0
BITMAP
88
50
20
50
88
ENDCHAR
STARTCHAR 121
ENCODING 121
SWIDTH 432 0
DWIDTH 6 0
BBX 5 6 0 -1
BITMAP
88
88
88
78
08
70
ENDCHAR
STARTCHAR 122
ENCODING 122
SWIDTH 432 0
DWIDTH 6 0
BBX 5 5 0 0
BITMAP
F8
10
20
40
F8
ENDCHAR
STARTCHAR 123
ENCODING 123
SWIDTH 432 0
DWIDTH 6 0
BBX 3 7 1 0
BITMAP
20
40
40
80
40
40
20
ENDCHAR
STARTCHAR 124
ENCODING 124
SWIDTH 432 0
DWIDTH 6 0
BBX 1 7 2 0
BITMAP
80
80
80
80
80
80
80
ENDCHAR
STARTCHAR 125
ENCODING 125
SWIDTH 432 0
DWIDTH 6 0
BBX 3 7 1 0
BITMAP
80
40
40
20
40
40
80
ENDCHAR
STARTCHAR 126
ENCODING 126
SWIDTH 432 0
DWIDTH 6 0
BBX 5 2 0 3
BITMAP
68
90
ENDCHAR
STARTCHAR 127
ENCODING 127
SWIDTH 432 0
DWIDTH 6 0
BBX 0 0 0 0
BITMAP
ENDCHAR
STARTCHAR 128
ENCODING 128
SWIDTH 864 0
DWIDTH 12 0
BBX 0 0 0 0
BITMAP
ENDCHAR
STARTCHAR 129
ENCODING 129
SWIDTH 864 0
DWIDTH 12 0
BBX 0 0 0 0
BITMAP
ENDCHAR
STARTCHAR 130
ENCODING 130
SWIDTH 864 0
DWIDTH 12 0
BBX 11 11 0 -1
BITMAP
0400
FFE0
0400
0E00
1500
1500
2480
4440
BFA0
0400
0400
ENDCHAR
STARTCHAR 131
ENCODING 131
SWIDTH 864 0
DWIDTH 12 0
BBX 11 11 0 -1
BITMAP
1060
5780
5400
7FE0
4520
4520
7540
5540
5480
5940
9220
ENDCHAR
STARTCHAR 132
ENCODING 132
SWIDTH 864 0
DWIDTH 12 0
BBX 11 11 0 -1
BITMAP
2100
2900
4FE0
4900
D100
4100
5FE0
4100
4100
4100
4100
ENDCHAR
STARTCHAR 133
ENCODING 133
SWIDTH 864 0
DWIDTH 12 0
BBX 11 11 0 -1
BITMAP
FFE0
8420
BFA0
8420
9F20
9120
9120
9F20
8020
FFE0
8020
ENDCHAR
STARTCHAR 134
ENCODING 134
SWIDTH 864 0
DWIDTH 12 0
BBX 11 11 0 -1
BITMAP
2060
2780
F400
27E0
7520
6D20
A540
2540
2480
2940
3220
ENDCHAR
STARTCHAR 135
ENCODING 135
SWIDTH 864 0
DWIDTH 12 0
BBX 11 11 0 -1
BITMAP
4920
2540
0100
8FE0
4820
0FE0
0820
2FE0
4820
8820
0860
ENDCHAR
STARTCHAR 136
ENCODING 136
SWIDTH 864 0
DWIDTH 12 0
BBX 11 11 0 -1
BITMAP
2200
2100
2FE0
F000
2280
7440
6AA0
A280
2100
2280
2C60
ENDCHAR
STARTCHAR 137
ENCODING 137
SWIDTH 864 0
DWIDTH 12 0
BBX 11 11 0 -1
BITMAP
0400
FFE0
1700
1900
1700
1900
FFE0
8020
9F20
9120
9F60
ENDCHAR
STARTCHAR 138
ENCODING 138
SWIDTH 864 0
DWIDTH 12 0
BBX 11 11 0 -1
BITMAP
0400
0400
0A00
1100
2480
C460
0400
0400
0400
0400
0400
ENDCHAR
STARTCHAR 139
ENCODING 139
SWIDTH 864 0
DWIDTH 12 0
BBX 11 1 0 4
BITMAP
FFE0
ENDCHAR
STARTCHAR 140
ENCODING 140
SWIDTH 864 0
DWIDTH 12 0
BBX 11 10 0 -1
BITMAP
FFE0
0800
0800
0A00
0900
0880
0840
0840
0800
0800
ENDCHAR
STARTCHAR 141
ENCODING 141
SWIDTH 864 0
DWIDTH 12 0
BBX 11 11 0 -1
BITMAP
7900
4BE0
4920
7920
4920
4920
7920
4920
5E20
E220
04C0
ENDCHAR
STARTCHAR 142
ENCODING 142
SWIDTH 864 0
DWIDTH 12 0
BBX 11 11 0 -1
BITMAP
4140
EFE0
4100
AFE0
A920
FFE0
2920
3FE0
E920
2920
2860
ENDCHAR
STARTCHAR 143
ENCODING 143
SWIDTH 864 0
DWIDTH 12 0
BBX 9 11 1 -1
BITMAP
0800
0800
FF80
8880
8880
8880
FF80
8880
0800
0800
0800
ENDCHAR
STARTCHAR 144
ENCODING 144
SWIDTH 864 0
DWIDTH 12 0
BBX 11 11 0 -1
BITMAP
FC00
4BE0
4920
7920
4920
7920
4920
4D40
F880
0940
0A20
ENDCHAR
STARTCHAR 145
ENCODING 145
SWIDTH 864 0
DWIDTH 12 0
BBX 11 11 0 -1
BITMAP
1020
FDC0
4500
2900
FDE0
1140
7D40
1140
5540
9240
3440
ENDCHAR
STARTCHAR 146
ENCODING 146
SWIDTH 864 0
DWIDTH 12 0
BBX 11 11 0 -1
BITMAP
7E20
4220
42A0
7EA0
48A0
48A0
7EA0
6AA0
AA20
2E20
0860
ENDCHAR
STARTCHAR 147
ENCODING 147
SWIDTH 864 0
DWIDTH 12 0
BBX 11 11 0 -1
BITMAP
0400
7FC0
0400
0400
FFE0
0400
4440
4440
4440
7FC0
0040
ENDCHAR
STARTCHAR 148
ENCODING 148
SWIDTH 864 0
DWIDTH 12 0
BBX 11 11 0 -1
BITMAP
40E0
2F00
0800
EFE0
2A20
2940
2880
2940
3220
5000
8FE0
ENDCHAR
STARTCHAR 149
ENCODING 149
SWIDTH 864 0
DWIDTH 12 0
BBX 11 11 0 -1
BITMAP
8200
5FE0
0200
CFC0
4200
5FE0
4840
4E40
4840
6E40
48C0
ENDCHAR
STARTCHAR 150
ENCODING 150
SWIDTH 864 0
DWIDTH 12 0
BBX 11 11 0 -1
BITMAP
1100
1100
1100
1100
2900
2A80
2A80
2A80
4440
4440
8820
ENDCHAR
STARTCHAR 151
ENCODING 151
SWIDTH 864 0
DWIDTH 12 0
BBX 11 11 0 -1
BITMAP
F7E0
9220
9220
F4C0
9800
97E0
F420
97E0
0000
5240
8920
ENDCHAR
STARTCHAR 152
ENCODING 152
SWIDTH 864 0
DWIDTH 12 0
BBX 11 11 0 -1
BITMAP
FBE0
8A20
8BE0
FA20
8A20
8BE0
8A20
FA20
8220
0420
08E0
ENDCHAR
STARTCHAR 153
ENCODING 153
SWIDTH 864 0
DWIDTH 12 0
BBX 11 11 0 -1
BITMAP
0400
FFE0
1100
1F00
1100
FFE0
8020
1F00
1100
1120
60E0
ENDCHAR
STARTCHAR 154
ENCODING 154
SWIDTH 864 0
DWIDTH 12 0
BBX 11 11 0 -1
BITMAP
0200
3FE0
2020
2020
3FE0
2000
3FE0
3020
5020
5FE0
9020
ENDCHAR
STARTCHAR 155
ENCODING 155
SWIDTH 864 0
DWIDTH 12 0
BBX 11 11 0 -1
BITMAP
23E0
7920
4920
9260
7C00
5540
7DE0
5640
7DE0
5440
9440
ENDCHAR
STARTCHAR 156
ENCODING 156
SWIDTH 864 0
DWIDTH 12 0
BBX 11 11 0 -1
BITMAP
4100
A920
0540
E100
4FE0
4820
E920
4920
4280
6440
5820
ENDCHAR
STARTCHAR 157
ENCODING 157
SWIDTH 864 0
DWIDTH 12 0
BBX 11 11 0 -1
BITMAP
23C0
2440
F880
2100
27C0
3540
E540
2FE0
2280
2440
6820
ENDCHAR
STARTCHAR 158
ENCODING 158
SWIDTH 864 0
DWIDTH 12 0
BBX 11 11 0 -1
BITMAP
E7E0
2400
A640
A540
A540
F480
1480
3540
D640
1400
67E0
ENDCHAR
STARTCHAR 159
ENCODING 159
SWIDTH 864 0
DWIDTH 12 0
BBX 11 11 0 -1
BITMAP
4000
27E0
F220
1220
2220
2A20
7220
AA20
2220
2420
28C0
ENDCHAR
STARTCHAR 160
ENCODING 160
SWIDTH 864 0
DWIDTH 12 0
BBX 11 11 0 -1
BITMAP
1200
1200
2220
6240
A280
2300
2600
2A00
2220
2220
21E0
ENDCHAR
STARTCHAR 161
ENCODING 161
SWIDTH 864 0
DWIDTH 12 0
BBX 11 11 0 -1
BITMAP
0600
7180
5000
7720
5140
5D80
7580
5540
5940
5120
9300
ENDCHAR
STARTCHAR 162
ENCODING 162
SWIDTH 864 0
DWIDTH 12 0
BBX 11 11 0 -1
BITMAP
0100
8100
4FE0
0920
0920
0920
2FE0
4920
8100
0100
0100
ENDCHAR
STARTCHAR 163
ENCODING 163
SWIDTH 864 0
DWIDTH 12 0
BBX 11 11 0 -1
BITMAP
2000
2000
FDE0
2520
2520
2520
2520
2520
4520
45E0
8920
ENDCHAR
STARTCHAR 164
ENCODING 164
SWIDTH 864 0
DWIDTH 12 0
BBX 11 11 0 -1
BITMAP
0480
8FE0
4900
1900
2FC0
0900
0900
2FC0
4900
8900
0FE0
ENDCHAR
STARTCHAR 165
ENCODING 165
SWIDTH 864 0
DWIDTH 12 0
BBX 11 11 0 -1
BITMAP
1000
3F80
5100
0E00
3180
C060
3F80
2480
3F80
2480
3F80
ENDCHAR
STARTCHAR 166
ENCODING 166
SWIDTH 864 0
DWIDTH 12 0
BBX 11 11 0 -1
BITMAP
2280
FA40
07E0
FA80
8A80
8A80
FA80
2280
B280
AAA0
6460
ENDCHAR
STARTCHAR 167
ENCODING 167
SWIDTH 864 0
DWIDTH 12 0
BBX 11 11 0 -1
BITMAP
2220
4740
9280
EFE0
2200
47C0
EC40
07C0
3440
C7C0
0440
ENDCHAR
STARTCHAR 168
ENCODING 168
SWIDTH 864 0
DWIDTH 12 0
BBX 11 11 0 -1
BITMAP
0800
0FC0
0800
0800
FFE0
0800
0E00
0980
0840
0800
0800
ENDCHAR
STARTCHAR 169
ENCODING 169
SWIDTH 864 0
DWIDTH 12 0
BBX 10 11 0 -1
BITMAP
FF80
0080
0080
8080
8080
FF80
8000
8000
8040
8040
7FC0
ENDCHAR
STARTCHAR 170
ENCODING 170
SWIDTH 864 0
DWIDTH 12 0
BBX 11 11 0 -1
BITMAP
47C0
4100
EFE0
4100
4500
6960
C920
4D60
4920
4FE0
C820
ENDCHAR
STARTCHAR 171
ENCODING 171
SWIDTH 864 0
DWIDTH 12 0
BBX 11 11 0 -1
BITMAP
0800
0400
0400
0A00
0A00
0A00
1100
1100
2080
4040
8020
ENDCHAR
STARTCHAR 172
ENCODING 172
SWIDTH 864 0
DWIDTH 12 0
BBX 11 11 0 -1
BITMAP
2240
2200
F7E0
2200
23E0
3520
E520
2540
2880
2940
7220
ENDCHAR
STARTCHAR 173
ENCODING 173
SWIDTH 864 0
DWIDTH 12 0
BBX 11 10 0 0
BITMAP
4440
4440
4440
7FC0
0400
0400
8420
8420
8420
FFE0
ENDCHAR
STARTCHAR 174
ENCODING 174
SWIDTH 864 0
DWIDTH 12 0
BBX 11 11 0 -1
BITMAP
0400
0000
7FC0
0400
0400
0400
7FC0
0400
0400
0400
FFE0
ENDCHAR
STARTCHAR 175
ENCODING 175
SWIDTH 864 0
DWIDTH 12 0
BBX 11 11 0 -1
BITMAP
1100
FFE0
1100
07C0
F800
2480
1500
FFE0
1500
2480
C460
ENDCHAR
STARTCHAR 176
ENCODING 176
SWIDTH 864 0
DWIDTH 12 0
BBX 11 11 0 -1
BITMAP
1100
7FC0
4440
7FC0
4440
7FC0
0400
FFE0
0400
0400
0400
ENDCHAR
STARTCHAR 177
ENCODING 177
SWIDTH 864 0
DWIDTH 12 0
BBX 9 11 0 -1
BITMAP
1000
FF80
8080
8080
FF80
8080
8080
FF80
8080
8080
FF80
ENDCHAR
STARTCHAR 178
ENCODING 178
SWIDTH 864 0
DWIDTH 12 0
BBX 11 11 0 -1
BITMAP
7100
0100
03E0
F920
2120
4120
5120
8920
FA20
0220
04C0
ENDCHAR
STARTCHAR 179
ENCODING 179
SWIDTH 864 0
DWIDTH 12 0
BBX 11 11 0 -1
BITMAP
7FC0
1100
1100
1100
1100
FFE0
1100
1100
2100
2100
4100
ENDCHAR
STARTCHAR 180
ENCODING 180
SWIDTH 864 0
DWIDTH 12 0
BBX 11 11 0 -1
BITMAP
2100
2200
F440
57E0
5020
57C0
9440
5440
2440
57C0
9440
ENDCHAR
STARTCHAR 181
ENCODING 181
SWIDTH 864 0
DWIDTH 12 0
BBX 11 11 0 -1
BITMAP
1100
0A00
7FC0
0400
0400
FFE0
0400
0A00
1100
2080
C060
ENDCHAR
STARTCHAR 182
ENCODING 182
SWIDTH 864 0
DWIDTH 12 0
BBX 10 11 0 -1
BITMAP
9FC0
4040
0440
8440
BF40
8440
8C40
9440
A440
8C40
81C0
ENDCHAR
STARTCHAR 183
ENCODING 183
SWIDTH 864 0
DWIDTH 12 0
BBX 11 11 0 -1
BITMAP
0400
27C0
2400
2400
FFE0
0000
1440
2480
4700
0C00
7000
ENDCHAR
STARTCHAR 184
ENCODING 184
SWIDTH 864 0
DWIDTH 12 0
BBX 11 11 0 -1
BITMAP
4480
2480
0FC0
E480
2480
3FE0
2480
2480
2880
5000
8FE0
ENDCHAR
STARTCHAR 185
ENCODING 185
SWIDTH 864 0
DWIDTH 12 0
BBX 11 11 0 -1
BITMAP
0800
0800
FF80
8880
8880
FF80
8880
8880
FFA0
8820
07E0
ENDCHAR
STARTCHAR 186
ENCODING 186
SWIDTH 864 0
DWIDTH 12 0
BBX 11 11 0 -1
BITMAP
2780
2480
F480
2480
7480
6C80
A480
2480
24A0
28A0
3060
ENDCHAR
STARTCHAR 187
ENCODING 187
SWIDTH 864 0
DWIDTH 12 0
BBX 10 11 0 -1
BITMAP
FFC0
8040
8040
9E40
9240
9240
9E40
8040
8040
FFC0
8040
ENDCHAR
STARTCHAR 188
ENCODING 188
SWIDTH 864 0
DWIDTH 12 0
BBX 11 11 0 -1
BITMAP
7FE0
4400
5FC0
5040
5FC0
5040
5FC0
4200
4A80
5240
A620
ENDCHAR
STARTCHAR 189
ENCODING 189
SWIDTH 864 0
DWIDTH 12 0
BBX 11 11 0 -1
BITMAP
0400
07E0
0400
7FC0
4040
4040
4040
7FC0
0000
5240
8920
ENDCHAR
STARTCHAR 190
ENCODING 190
SWIDTH 864 0
DWIDTH 12 0
BBX 11 11 0 -1
BITMAP
4780
2480
0480
E860
2000
2FC0
2440
2280
3100
2280
0C60
ENDCHAR
STARTCHAR 191
ENCODING 191
SWIDTH 864 0
DWIDTH 12 0
BBX 11 11 0 -1
BITMAP
7FC0
4A40
7FC0
0400
FFE0
0400
3F80
2080
2480
2480
FFE0
ENDCHAR
STARTCHAR 192
ENCODING 192
SWIDTH 864 0
DWIDTH 12 0
BBX 11 11 0 -1
BITMAP
2100
2FE0
4820
4FE0
C800
4FE0
4AA0
5AA0
6FE0
4AA0
4860
ENDCHAR
STARTCHAR 193
ENCODING 193
SWIDTH 864 0
DWIDTH 12 0
BBX 11 11 0 -1
BITMAP
13C0
E440
2A80
F100
2280
65E0
7220
A540
2080
2300
2C00
ENDCHAR
STARTCHAR 194
ENCODING 194
SWIDTH 864 0
DWIDTH 12 0
BBX 11 11 0 -1
BITMAP
0400
FFE0
8020
0000
FFE0
0400
2400
27C0
2400
5400
8FE0
ENDCHAR
STARTCHAR 195
ENCODING 195
SWIDTH 864 0
DWIDTH 12 0
BBX 11 11 0 -1
BITMAP
73E0
1080
5100
23E0
FA20
2AA0
22A0
22A0
2080
2140
6220
ENDCHAR
STARTCHAR 196
ENCODING 196
SWIDTH 864 0
DWIDTH 12 0
BBX 11 11 0 -1
BITMAP
2200
F780
2280
3680
E2A0
25A0
2460
6820
0000
5240
8920
ENDCHAR
STARTCHAR 197
ENCODING 197
SWIDTH 864 0
DWIDTH 12 0
BBX 11 11 0 -1
BITMAP
0860
7380
4200
4200
7BE0
4A40
7A40
4A40
4240
4440
8840
ENDCHAR
STARTCHAR 198
ENCODING 198
SWIDTH 864 0
DWIDTH 12 0
BBX 11 11 0 -1
BITMAP
0400
FFE0
0800
1FC0
3040
5FC0
9040
1FC0
1040
1040
10C0
ENDCHAR
STARTCHAR 199
ENCODING 199
SWIDTH 864 0
DWIDTH 12 0
BBX 11 11 0 -1
BITMAP
0200
7FE0
4200
4200
5FC0
4200
4700
4A80
5240
6220
8200
ENDCHAR
STARTCHAR 200
ENCODING 200
SWIDTH 864 0
DWIDTH 12 0
BBX 11 11 0 -1
BITMAP
F3C0
9640
9180
A660
A100
97C0
9100
9500
E7E0
8100
8100
ENDCHAR
STARTCHAR 201
ENCODING 201
SWIDTH 864 0
DWIDTH 12 0
BBX 11 11 0 -1
BITMAP
0F80
8880
4F80
0880
8F80
4000
1FC0
3540
5540
9540
3FE0
ENDCHAR
STARTCHAR 202
ENCODING 202
SWIDTH 864 0
DWIDTH 12 0
BBX 11 11 0 -1
BITMAP
27E0
2080
F880
2080
2080
3880
E080
2080
2080
2080
6180
ENDCHAR
STARTCHAR 203
ENCODING 203
SWIDTH 864 0
DWIDTH 12 0
BBX 11 11 0 -1
BITMAP
9FE0
5100
17C0
9440
57C0
1440
17C0
1100
5540
9920
2300
ENDCHAR
STARTCHAR 204
ENCODING 204
SWIDTH 864 0
DWIDTH 12 0
BBX 11 11 0 -1
BITMAP
2080
27E0
F240
2180
2240
3420
E240
2240
2240
2240
6440
ENDCHAR
STARTCHAR 205
ENCODING 205
SWIDTH 864 0
DWIDTH 12 0
BBX 11 11 0 -1
BITMAP
4100
4100
EFE0
4920
4920
6FE0
C920
4920
4920
4FE0
C820
ENDCHAR
STARTCHAR 206
ENCODING 206
SWIDTH 864 0
DWIDTH 12 0
BBX 11 11 0 -1
BITMAP
2100
F100
4FE0
A920
F920
2FE0
3920
E920
2920
2FE0
2820
ENDCHAR
STARTCHAR 207
ENCODING 207
SWIDTH 864 0
DWIDTH 12 0
BBX 11 11 0 -1
BITMAP
8FE0
4920
0BA0
C920
4FE0
4820
4BA0
4AA0
4BA0
6820
50E0
ENDCHAR
STARTCHAR 208
ENCODING 208
SWIDTH 864 0
DWIDTH 12 0
BBX 11 11 0 -1
BITMAP
7FC0
0400
4440
2440
2480
0400
FFE0
0400
0400
0400
0400
ENDCHAR
STARTCHAR 209
ENCODING 209
SWIDTH 864 0
DWIDTH 12 0
BBX 11 11 0 -1
BITMAP
8200
5FC0
0200
DFC0
5240
5FC0
4700
4A80
5240
A200
1FE0
ENDCHAR
STARTCHAR 210
ENCODING 210
SWIDTH 864 0
DWIDTH 12 0
BBX 11 11 0 -1
BITMAP
0200
7FE0
4880
7FE0
4880
4F80
4000
5FC0
4840
4780
9860
ENDCHAR
STARTCHAR 211
ENCODING 211
SWIDTH 864 0
DWIDTH 12 0
BBX 11 11 0 -1
BITMAP
0100
EFE0
A100
A440
AFE0
A440
AFE0
E920
A920
0280
0C60
ENDCHAR
STARTCHAR 212
ENCODING 212
SWIDTH 864 0
DWIDTH 12 0
BBX 11 11 0 -1
BITMAP
14C0
F6A0
BC60
A780
A880
BFE0
A920
EFE0
A920
0FE0
0920
ENDCHAR
STARTCHAR 213
ENCODING 213
SWIDTH 864 0
DWIDTH 12 0
BBX 11 11 0 -1
BITMAP
7F80
4080
4280
6280
5480
4880
4880
54A0
62A0
4060
8020
ENDCHAR
STARTCHAR 214
ENCODING 214
SWIDTH 864 0
DWIDTH 12 0
BBX 11 11 0 -1
BITMAP
0200
7FE0
4020
7FE0
4000
7DE0
54A0
4C60
54A0
6520
8C60
ENDCHAR
STARTCHAR 215
ENCODING 215
SWIDTH 864 0
DWIDTH 12 0
BBX 11 11 0 -1
BITMAP
0200
9FE0
4400
0840
9FE0
4020
0A80
0A80
4AA0
92A0
2260
ENDCHAR
STARTCHAR 216
ENCODING 216
SWIDTH 864 0
DWIDTH 12 0
BBX 11 11 0 -1
BITMAP
4100
4FE0
E820
4280
4440
6820
C7C0
4100
4100
4100
CFE0
ENDCHAR
STARTCHAR 217
ENCODING 217
SWIDTH 864 0
DWIDTH 12 0
BBX 11 11 0 -1
BITMAP
5020
7D20
9120
FF20
1120
7D20
5520
5520
5420
5C20
10E0
ENDCHAR
STARTCHAR 218
ENCODING 218
SWIDTH 864 0
DWIDTH 12 0
BBX 11 11 0 -1
BITMAP
3F80
2080
3F80
2080
FFE0
4800
7BC0
4940
7940
4880
FB60
ENDCHAR
STARTCHAR 219
ENCODING 219
SWIDTH 864 0
DWIDTH 12 0
BBX 11 11 0 -1
BITMAP
0400
0400
0400
2480
2440
4440
4420
8420
0400
0400
1C00
ENDCHAR
STARTCHAR 220
ENCODING 220
SWIDTH 864 0
DWIDTH 12 0
BBX 11 11 0 -1
BITMAP
0400
0400
0400
FFE0
0400
0A00
0A00
1100
1100
2080
C060
ENDCHAR
STARTCHAR 221
ENCODING 221
SWIDTH 720 0
DWIDTH 10 0
BBX 9 11 0 -1
BITMAP
8880
4900
0800
FF80
0080
0080
7F80
0080
0080
FF80
0080
ENDCHAR
STARTCHAR 222
ENCODING 222
SWIDTH 864 0
DWIDTH 12 0
BBX 11 11 0 -1
BITMAP
2080
1100
FFE0
0000
7C40
4540
7D40
4540
7D40
4440
8CC0
ENDCHAR
STARTCHAR 223
ENCODING 223
SWIDTH 864 0
DWIDTH 12 0
BBX 11 11 0 -1
BITMAP
47C0
2000
0000
EFE0
2100
2200
2440
2FE0
2020
5000
8FE0
ENDCHAR
STARTCHAR 224
ENCODING 224
SWIDTH 864 0
DWIDTH 12 0
BBX 11 11 0 -1
BITMAP
20C0
2700
F900
21C0
7700
2100
F9E0
2700
7120
A920
20E0
ENDCHAR
STARTCHAR 225
ENCODING 225
SWIDTH 864 0
DWIDTH 12 0
BBX 11 11 0 -1
BITMAP
1040
1040
7DE0
1040
38C0
3540
5240
9440
1040
1040
10C0
ENDCHAR
STARTCHAR 226
ENCODING 226
SWIDTH 864 0
DWIDTH 12 0
BBX 11 11 0 -1
BITMAP
0040
F840
0BE0
0840
8840
5240
5140
2140
5040
4840
89C0
ENDCHAR
STARTCHAR 227
ENCODING 227
SWIDTH 864 0
DWIDTH 12 0
BBX 10 11 0 -1
BITMAP
8400
8440
8480
F500
8600
8400
8400
9400
A440
C440
83C0
ENDCHAR
STARTCHAR 228
ENCODING 228
SWIDTH 864 0
DWIDTH 12 0
BBX 11 11 0 -1
BITMAP
1140
7D20
1100
FFE0
2100
FD40
5140
7C80
10A0
FD60
1220
ENDCHAR
STARTCHAR 229
ENCODING 229
SWIDTH 864 0
DWIDTH 12 0
BBX 11 11 0 -1
BITMAP
17C0
2440
2440
67C0
A100
2FE0
2100
2380
2540
2920
2100
ENDCHAR
STARTCHAR 230
ENCODING 230
SWIDTH 864 0
DWIDTH 12 0
BBX 11 11 0 -1
BITMAP
0800
FFE0
1000
27C0
2080
6100
AFE0
2100
2100
2100
2300
ENDCHAR
STARTCHAR 231
ENCODING 231
SWIDTH 864 0
DWIDTH 12 0
BBX 11 11 0 -1
BITMAP
2400
2FE0
B400
A480
A4A0
AAC0
2A80
2880
2940
3240
2420
ENDCHAR
STARTCHAR 232
ENCODING 232
SWIDTH 864 0
DWIDTH 12 0
BBX 11 11 0 -1
BITMAP
7FE0
8000
3FC0
2040
3FC0
1000
3FC0
2040
5080
0F00
70E0
ENDCHAR
STARTCHAR 233
ENCODING 233
SWIDTH 864 0
DWIDTH 12 0
BBX 11 11 0 -1
BITMAP
7FE0
4000
4000
4000
4000
4000
4000
4000
4000
4000
8000
ENDCHAR
STARTCHAR 234
ENCODING 234
SWIDTH 864 0
DWIDTH 12 0
BBX 11 11 0 -1
BITMAP
FFE0
0400
7FC0
4440
7FC0
4440
7FC0
4400
2400
1800
E7E0
ENDCHAR
STARTCHAR 235
ENCODING 235
SWIDTH 864 0
DWIDTH 12 0
BBX 11 11 0 -1
BITMAP
11E0
FD00
4500
29E0
FD40
1140
7D40
1140
5540
9240
3440
ENDCHAR
STARTCHAR 236
ENCODING 236
SWIDTH 864 0
DWIDTH 12 0
BBX 11 11 0 -1
BITMAP
2100
5FE0
4000
CFC0
4000
4FC0
4000
4FC0
4840
4FC0
4840
ENDCHAR
STARTCHAR 237
ENCODING 237
SWIDTH 864 0
DWIDTH 12 0
BBX 11 11 0 -1
BITMAP
0800
7FC0
4040
7FC0
4040
7FC0
4040
3B80
4440
50A0
8FA0
ENDCHAR
STARTCHAR 238
ENCODING 238
SWIDTH 864 0
DWIDTH 12 0
BBX 11 11 0 -1
BITMAP
7FC0
4440
7FC0
4440
7FC0
0400
1B00
E0E0
1100
1100
6100
ENDCHAR
STARTCHAR 239
ENCODING 239
SWIDTH 864 0
DWIDTH 12 0
BBX 11 11 0 -1
BITMAP
FFE0
0400
0800
7FE0
4920
4F20
4920
4F20
4920
7FE0
4020
ENDCHAR
STARTCHAR 240
ENCODING 240
SWIDTH 864 0
DWIDTH 12 0
BBX 11 11 0 -1
BITMAP
FDE0
5640
7940
3880
5540
9220
FFE0
0400
27C0
2400
FFE0
ENDCHAR
STARTCHAR 241
ENCODING 241
SWIDTH 864 0
DWIDTH 12 0
BBX 11 11 0 -1
BITMAP
F8C0
5300
7A00
13E0
FA40
1440
3F80
2080
3F80
2080
3F80
ENDCHAR
STARTCHAR 242
ENCODING 242
SWIDTH 864 0
DWIDTH 12 0
BBX 11 11 0 -1
BITMAP
1100
2FE0
2440
67C0
A440
2FE0
2820
27C0
2100
2100
2300
ENDCHAR
STARTCHAR 243
ENCODING 243
SWIDTH 864 0
DWIDTH 12 0
BBX 11 11 0 -1
BITMAP
1800
E3E0
8220
9A20
E220
8220
8A20
B220
C2E0
0200
0200
ENDCHAR
STARTCHAR 244
ENCODING 244
SWIDTH 864 0
DWIDTH 12 0
BBX 11 11 0 -1
BITMAP
2480
46A0
95C0
E480
27E0
4480
F5C0
06A0
3480
C480
07E0
ENDCHAR
STARTCHAR 245
ENCODING 245
SWIDTH 864 0
DWIDTH 12 0
BBX 11 11 0 -1
BITMAP
2100
47C0
9100
EFE0
22A0
4580
F280
0FE0
3100
C240
0C20
ENDCHAR
STARTCHAR 246
ENCODING 246
SWIDTH 864 0
DWIDTH 12 0
BBX 11 11 0 -1
BITMAP
0200
0200
2200
23C0
2200
2200
2200
2200
2200
2200
FFE0
ENDCHAR
STARTCHAR 247
ENCODING 247
SWIDTH 864 0
DWIDTH 12 0
BBX 9 11 0 -1
BITMAP
0800
0800
FF80
8880
8880
8880
FF80
8880
8880
8880
FF80
ENDCHAR
STARTCHAR 248
ENCODING 248
SWIDTH 864 0
DWIDTH 12 0
BBX 11 11 0 -1
BITMAP
2100
53A0
4100
F7E0
5100
53C0
5640
53C0
5A40
53C0
4240
ENDCHAR
STARTCHAR 249
ENCODING 249
SWIDTH 864 0
DWIDTH 12 0
BBX 11 11 0 -1
BITMAP
7FC0
0400
0400
0400
FFE0
0A00
0A00
1200
2220
4220
81E0
ENDCHAR
STARTCHAR 250
ENCODING 250
SWIDTH 864 0
DWIDTH 12 0
BBX 11 11 0 -1
BITMAP
1100
2100
2FE0
6100
A380
2380
2540
2540
2920
2100
2100
ENDCHAR
STARTCHAR 251
ENCODING 251
SWIDTH 864 0
DWIDTH 12 0
BBX 11 11 0 -1
BITMAP
F7E0
9420
F420
97E0
9480
F480
97E0
9480
F4A0
9660
0420
ENDCHAR
STARTCHAR 252
ENCODING 252
SWIDTH 864 0
DWIDTH 12 0
BBX 11 11 0 -1
BITMAP
7BE0
9480
0400
7FC0
0400
FFE0
0100
FFE0
2100
1100
0700
ENDCHAR
STARTCHAR 253
ENCODING 253
SWIDTH 864 0
DWIDTH 12 0
BBX 11 11 0 -1
BITMAP
2100
47C0
9100
2FE0
6080
AFE0
2080
2480
2280
2080
2380
ENDCHAR
STARTCHAR 254
ENCODING 254
SWIDTH 864 0
DWIDTH 12 0
BBX 11 11 0 -1
BITMAP
27C0
2440
F7C0
2EE0
2AA0
3EE0
E100
2FE0
2380
2540
6920
ENDCHAR
STARTCHAR 255
ENCODING 255
SWIDTH 864 0
DWIDTH 12 0
BBX 11 11 0 -1
BITMAP
1400
27E0
2A00
6200
A3C0
2200
2200
23E0
2200
2200
2200
ENDCHAR
ENDFONT
